<?xml version="1.0" encoding="iso-8859-1"?>
<!-- Generator: Adobe Illustrator 19.0.0, SVG Export Plug-In . SVG Version: 6.00 Build 0)  -->
<svg version="1.1" id="Capa_1" xmlns="http://www.w3.org/2000/svg" xmlns:xlink="http://www.w3.org/1999/xlink" x="0px" y="0px"
	 viewBox="0 0 511.999 511.999" style="enable-background:new 0 0 511.999 511.999;" xml:space="preserve">
<g>
	<g>
		<rect x="114.017" y="414.021" width="152.023" height="30.004"/>
	</g>
</g>
<g>
	<g>
		<rect x="286.042" y="414.021" width="30.004" height="30.004"/>
	</g>
</g>
<g>
	<g>
		<rect x="64.01" y="414.021" width="30.004" height="30.004"/>
	</g>
</g>
<g>
	<g>
		<rect x="150.022" y="364.014" width="30.004" height="30.004"/>
	</g>
</g>
<g>
	<g>
		<rect x="200.03" y="364.014" width="30.004" height="30.004"/>
	</g>
</g>
<g>
	<g>
		<rect x="125.019" y="314.006" width="30.004" height="30.004"/>
	</g>
</g>
<g>
	<g>
		<rect x="175.026" y="314.006" width="30.004" height="30.004"/>
	</g>
</g>
<g>
	<g>
		<rect x="225.033" y="314.006" width="30.004" height="30.004"/>
	</g>
</g>
<g>
	<g>
		<rect x="250.037" y="364.014" width="30.004" height="30.004"/>
	</g>
</g>
<g>
	<g>
		<rect x="300.044" y="364.014" width="30.004" height="30.004"/>
	</g>
</g>
<g>
	<g>
		<rect x="50.007" y="364.014" width="30.004" height="30.004"/>
	</g>
</g>
<g>
	<g>
		<rect x="100.015" y="364.014" width="30.004" height="30.004"/>
	</g>
</g>
<g>
	<g>
		<rect x="75.011" y="314.006" width="30.004" height="30.004"/>
	</g>
</g>
<g>
	<g>
		<rect x="275.041" y="314.006" width="30.004" height="30.004"/>
	</g>
</g>
<g>
	<g>
		<path d="M488.309,184.714l-66.478-66.478c-17.547-17.547-46.101-17.549-63.649,0l-14.832,14.832l-28.41-28.41
			c-8.5-8.501-19.803-13.183-31.825-13.183h-36.078c-8.272,0-15.002-6.73-15.002-15.002V17.964H202.03v58.509
			c0,24.817,20.19,45.007,45.007,45.007h36.078c4.008,0,7.774,1.561,10.609,4.395l28.41,28.41l-14.87,14.87
			c-17.549,17.549-17.549,46.101,0,63.649l31.197,31.197H205.03v-60.009c0-27.574-22.433-50.007-50.007-50.007h-34.005
			c-11.03,0-20.003-8.973-20.003-20.003v-3c0-11.03,8.973-20.003,20.003-20.003c27.574,0,50.007-22.433,50.007-50.007V17.964
			h-30.004v43.006c0,11.03-8.973,20.003-20.003,20.003c-27.574,0-50.007,22.433-50.007,50.007v3
			c0,27.574,22.433,50.007,50.007,50.007h34.005c11.03,0,20.003,8.973,20.003,20.003v60.009H0v230.034h380.056v-189.07
			c14.804,12.002,32.886,18.007,50.97,18.007c20.745,0,41.49-7.897,57.284-23.69C519.896,267.694,519.896,216.301,488.309,184.714z
			 M350.052,464.031H30.004V294.005h320.047V464.031z M467.093,278.065c-9.634,9.634-22.442,14.94-36.068,14.94
			s-26.434-5.306-36.068-14.94l-66.478-66.478c-5.85-5.85-5.85-15.367,0-21.217l14.851-14.851l33.946,33.946l21.216-21.216
			l-33.946-33.946l14.851-14.851c2.925-2.924,6.767-4.388,10.608-4.388c3.843,0,7.684,1.463,10.609,4.388l66.478,66.478
			c9.634,9.634,14.94,22.442,14.94,36.068S476.728,268.432,467.093,278.065z"/>
	</g>
</g>
<g>
	<g>
		<circle cx="435.975" cy="246.946" r="15.002"/>
	</g>
</g>
<g>
</g>
<g>
</g>
<g>
</g>
<g>
</g>
<g>
</g>
<g>
</g>
<g>
</g>
<g>
</g>
<g>
</g>
<g>
</g>
<g>
</g>
<g>
</g>
<g>
</g>
<g>
</g>
<g>
</g>
</svg>
